<?xml version="1.0" encoding="utf-8"?>
<!-- Generator: Adobe Illustrator 25.4.1, SVG Export Plug-In . SVG Version: 6.00 Build 0)  -->
<svg version="1.1" id="Layer_1" xmlns="http://www.w3.org/2000/svg" xmlns:xlink="http://www.w3.org/1999/xlink" x="0px" y="0px"
	 viewBox="0 0 125.5 114" style="enable-background:new 0 0 125.5 114;" xml:space="preserve">
<style type="text/css">
	.st0{fill:#FFFFFF;}
</style>
<g>
	<path class="st0" d="M5.5,109.7h4.2c1.8,0,2.5-0.4,2.5-2.1c0-1.7-0.6-2-2.4-2H5.5V109.7z M5.5,101.8h4c1.9,0,2.4-0.3,2.4-2
		c0-1.2-0.2-1.7-1.7-1.8H5.5V101.8z M0,93.5h10.9c4.1,0,6.5,0.8,6.5,5.3c0,2.6-0.5,4.3-3.3,4.8v0.2c3.1,0.2,3.6,2,3.6,4.6
		c0,5.1-2.4,5.8-6.8,5.8H0V93.5z"/>
	<polygon class="st0" points="25.3,101.8 34.1,101.8 34.1,105.6 25.3,105.6 25.3,109.7 34.9,109.7 34.9,114.2 19.8,114.2 19.8,93.5 
		34.7,93.5 34.7,98 25.3,98 	"/>
	<path class="st0" d="M37.3,93.5h10.6c4.8,0.1,7.1,1.1,7.1,6.3c0,3.4,0,5.5-3.9,6.4v0.2c2.3,0.1,3.7,1.3,3.7,3.7v4.2h-5.5v-2.9
		c0.1-1.5-0.6-2.6-2.3-2.6h-4.3v5.5h-5.5V93.5z M47.1,103.9c2.4,0,2.3-0.9,2.3-3.2c0-1.8-0.5-2.4-2.3-2.4h-4.3v5.6H47.1z"/>
	<path class="st0" d="M71.1,93.5v14.3c0,5.5-1.7,6.5-7.4,6.5c-5.7,0-6.9-1.4-6.9-7.1v-1.7H62v1.7c0,1.7,0.2,2.3,1.7,2.3
		c1.7,0,1.9-0.4,1.9-1.7V93.5H71.1z"/>
	<path class="st0" d="M82.4,97.7L82.4,97.7l-2.6,9h5.1L82.4,97.7z M78.6,110.6l-1,3.6h-5.7l6.2-20.7h8.4l6.3,20.7h-5.6l-1.1-3.6
		H78.6z"/>
	<polygon class="st0" points="101.3,106.9 101.3,114.2 95.8,114.2 95.8,106.9 88.5,93.5 94.8,93.5 98.5,101.5 98.7,101.5 
		102.5,93.5 108.9,93.5 	"/>
	<path class="st0" d="M115.2,97.7L115.2,97.7l-2.6,9h5.1L115.2,97.7z M111.4,110.6l-1,3.6h-5.7l6.2-20.7h8.4l6.3,20.7h-5.6l-1.1-3.6
		H111.4z"/>
	<g>
		<path class="st0" d="M76.2,21.4c0-3.6,0-6.4,0-7.1c0-5.3-8.5-5.3-8.5-0.1c0,0,0,3.1,0,7.2C70.5,21.4,73.5,21.4,76.2,21.4
			L76.2,21.4z M57.7,21.5c0-3.6,0-6.4,0-7.1c0-5.3-8.5-5.3-8.5-0.1c0,0,0,2.9,0,7.2C51.9,21.5,54.9,21.4,57.7,21.5L57.7,21.5z
			 M99.1,40.9c-1.2,1.6-3,2.7-5.5,2.7c0,0-3,0-7.2,0l0,0c0,0.5,0,0.9,0,1.4l0,0c0,0.6,0,1.1,0,1.7l0,0c3.1,0,5.7-0.1,6.9-0.1
			c9.7,0,9.7,15.6,0.3,15.6c0,0-15.5,0-25.8,0c0,0.8,0,1.9,0,2.7l0,0c12.2,0,25.9,0,25.9,0c11.2,0,15.1-15.3,6.3-19.5l-0.3-0.1
			c7.8-3.1,6.8-20.2-6.4-20.2c-3.7,0-15.6,0-25.6,0c0,1,0,2,0,3l0,0c8.6,0,22.4,0,25.6,0C100.4,28.1,102.2,36.4,99.1,40.9
			 M76.3,46.5c0-0.7,0-2,0-2.3l0,0c0-0.2,0,0.4,0,0l0,0c-5.2,0-10.3,0-13.7,0l0,0c-3.3,0-8.3,0-13.4,0l0,0c0,0.5,0-0.4,0,0l0,0
			c0,0.4,0,1.7,0,2.4l0,0c5.4,0,10.7,0,13.4,0l0,0C65.4,46.5,70.8,46.5,76.3,46.5L76.3,46.5z M86.5,58.7c3.9,0,6.8,0,6.8,0
			c5.2,0,5.2-8.4-0.1-8.4c-0.6,0-3.2,0-6.7,0l0,0C86.5,53,86.5,55.9,86.5,58.7L86.5,58.7z M76.2,58.6c0-3,0-6,0-8.4l0,0
			c-3,0-6,0-8.4,0l0,0c0,2.4,0,5.4,0,8.4l0,0C70.2,58.6,73.2,58.6,76.2,58.6L76.2,58.6z M86.5,31.6c0,2.7,0,5.7,0,8.5l0,0
			c3.9,0,6.8,0,6.8,0c5.2,0,5.2-8.5-0.1-8.5C92.5,31.6,89.9,31.7,86.5,31.6L86.5,31.6z M76.2,31.6c-3.1,0-6.1,0-8.5,0
			c0,3.1,0,6,0,8.5l0,0c2.5,0,5.4,0,8.5,0C76.2,37.7,76.2,34.6,76.2,31.6L76.2,31.6z M57.7,65c0-1.1,0-1.8,0-2.9l0,0
			c-10.3,0-26,0-26,0c-9.4,0-9.4-15.6,0.3-15.6c1.2,0,4-0.1,7.4-0.1l0,0c0-0.5,0-1.7,0-2.1l0,0c0-0.4,0,0.4,0,0c-4.3,0-7.6,0-7.6,0
			C22.3,44.4,22.3,28,32,28c3.2,0,17.1-0.1,25.7-0.1c0-0.9,0-1.9,0-2.8c-0.7,0-1.3,0-1.8,0l0,0c-6.5,0-13.5,0-18.9,0
			c-2.7,0-4-0.7-5.3-0.7c-11.9,0-14.7,16.2-5.7,20.6l0,0C17,49.8,20.1,65,31.7,65c0,0,11.9,0,24.1,0l0,0C56.5,65,57,65,57.7,65
			L57.7,65z M57.7,40.3c0-2.4,0-5.6,0-8.8c-2.5,0-5.4,0-8.6,0c0,3.3,0,6.3,0,8.8l0,0C52.1,40.3,55.2,40.3,57.7,40.3L57.7,40.3z
			 M57.7,58.7c0-3.1,0.1-6,0.1-8.5l0,0c-2.4,0-5.4,0-8.4,0l0,0c0,2.5,0,5.5,0,8.5l0,0C52.2,58.7,55.3,58.7,57.7,58.7L57.7,58.7z
			 M67,8.5c4.5-3.2,12.8-1.3,12.8,5.8c0,1.2,0,3.9,0,7.2l0,0c1,0,2,0,3,0l0,0c0-3.2,0-5.8,0-7.2C82.8,1,65.7,0.6,62.7,8.4l-0.4-0.5
			c-4.2-8.8-19.4-5.2-19.4,6c0,0,0,3.1,0,7.5c0.9,0,1.9,0,2.8,0c0-4.2,0-7.4,0-7.4c0-9.4,15.6-9.4,15.6,0.3c0,3.2,0,17.3,0.1,25.9
			c0.5,0,1,0,1.3,0l0,0c0.4,0,1,0,1.7,0l0,0c0-10.3-0.1-26.1-0.1-26.1C64.2,11.5,65.3,9.6,67,8.5 M82.7,68.7c-0.8,0-1.9,0-2.8,0l0,0
			c0,3.1,0,5.7,0,6.9c0,9.7-15.7,9.7-15.7,0.3c0,0,0-15.5,0-25.8l0,0c-0.8,0-1.3,0-1.6,0l0,0c-0.3,0-0.7,0-1.2,0
			c0,8.6,0,22.3,0,25.5c0,9.7-15.8,9.7-15.8,0.3c0,0,0-3.1,0-7.4l0,0c-0.8,0-1.9,0-2.6,0l0,0c0,4.5,0,7.4,0,7.4
			c0.1,11.6,15.1,16,19.8,7.1l0,0c4.4,9,19.9,4.4,19.9-7.5C82.7,73.6,82.7,71.3,82.7,68.7L82.7,68.7z M82.7,58.6c0-2.3,0-4.6,0-6.9
			l0,0c0-4.4,0-12.5,0-20.1l0,0c-0.9,0-1.9,0-2.8,0l0,0c0,5.3,0,10.6,0,13.3l0,0c0,2.8,0,8.2,0,13.7l0,0
			C80.8,58.6,81.9,58.6,82.7,58.6L82.7,58.6z M45.7,58.6c0-5.1,0-10.4,0-13.7l0,0c0-3.3,0-8.4,0-13.5h-2.8c0,7.2,0,15,0,20.3l0,0
			c0,2.3,0,4.7,0,6.9l0,0C43.8,58.6,44.8,58.6,45.7,58.6L45.7,58.6z M39.3,58.6c0-2.6,0-5.6,0-8.5l0,0c-3.6,0-6.5,0-7.2,0
			c-5.3,0-5.3,8.5-0.2,8.5C31.9,58.6,35,58.6,39.3,58.6L39.3,58.6z M39.4,31.5h-7.3c-5.3,0-5.3,8.6-0.2,8.6c0,0,3.1,0,7.4,0
			C39.4,37.2,39.4,34.2,39.4,31.5z M57.7,68.5c-2.8,0-5.8,0-8.4,0l0,0c0,4.2,0,7.1,0,7.1c0,5.2,8.4,5.2,8.4-0.1
			C57.7,74.8,57.7,72.1,57.7,68.5L57.7,68.5z M76.2,68.7c-2.6,0-5.6,0-8.5,0l0,0c0,4,0,6.9,0,6.9c0,5.2,8.5,5.2,8.5-0.1
			C76.2,74.8,76.2,72.1,76.2,68.7L76.2,68.7z M84.6,66.8c0,2.8,0,5.4,0,7.5c0,11.9-14.7,15.2-21.8,9.2l0,0
			c-8.2,6.5-21.9,2.9-21.9-8.7c0,0,0-3.1,0-8.1l0,0c-4.9,0-8.3,0.1-8.3,0.1c-11.6,0-15.2-13.5-8.7-21.8l0,0
			c-6.1-7.1-2.8-21.8,9.2-21.8c2.2,0,4.9-0.1,7.9-0.1c0-4.8,0-8,0-8c0-9.7,12.3-15.7,21.4-8.3l0,0c4.5-4,12.5-4.4,17.4-0.9
			c1.3,0.9,2.9,2.9,2.7,2.7c1.3,1.8,2.2,4.1,2.2,6.9c0,2.1,0,4.7,0,7.5l0,0c2.6,0,5.2,0,7.1,0c2.8,0,5.1,0.8,6.9,2.1
			c-0.2-0.2,1.8,1.4,2.7,2.7c3.5,4.9,3.1,12.9-0.9,17.4l0,0c7.4,9.1,1.4,21.5-8.3,21.5C92.2,66.8,89.1,66.8,84.6,66.8L84.6,66.8z"/>
		<path class="st0" d="M82.8,64.9h10.9c11.2,0,13.1-15.4,4.3-19.6l0,0c7.8-3.1,8.5-20.2-4.7-20.2c-1.9,0-10.4,0-10.4,0v-3.6
			c0-3.2,0-5.8,0-7.2C82.8,1,65.7,1.7,62.6,9.5l0,0c-4.2-8.8-19.7-6.9-19.7,4.3c0,0,0,6.8,0,11.2h0c-4.2,0-8,0-10.8,0
			c-11.9,0-14.2,15.5-5.2,19.9l0,0c-8.9,4.7-6.8,20,4.8,20c0,0-0.9,0,11.3,0l0,3.4c0,4.5,0,7.4,0,7.4c0.1,11.6,15.2,13.7,19.9,4.8
			l0,0c4.5,9,19.8,6.7,19.8-5.2c0-10.2,0-12.6,0-6.8L82.8,64.9L82.8,64.9z M86.6,68.3c0,3,0,5.9,0,8c0,12.9-15.9,16.4-23.6,9.9l0,0
			c-8.9,7-23.6,3.1-23.6-9.4c0,0,0-3.4,0-8.7l0,0c-5.3,0-8.9,0.1-8.9,0.1c-12.5,0-16.4-14.6-9.4-23.5l0,0c-6.6-7.7-3-23.5,9.9-23.5
			c2.3,0,5.3-0.1,8.5-0.1c0-5.2,0-8.6,0-8.6c0-10.4,13.3-16.9,23.1-8.9l0,0c4.8-4.3,13.5-4.8,18.7-1c1.4,1,3.2,3.1,2.9,2.9
			c1.4,2,2.3,4.5,2.3,7.5c0,2.2,0,5,0,8.1l0,0c2.9,0,5.6,0,7.7,0c3,0,5.5,0.9,7.5,2.3c-0.2-0.2,2,1.5,2.9,2.9
			c3.8,5.3,3.3,13.9-1,18.7l0,0c8,9.8,1.5,23.2-8.9,23.2C94.8,68.3,91.5,68.2,86.6,68.3L86.6,68.3z"/>
		<path class="st0" d="M68,45c0,2.9-2.4,5.3-5.3,5.3c-2.9,0-5.3-2.4-5.3-5.3c0-2.9,2.4-5.3,5.3-5.3C65.7,39.8,68,42.1,68,45z"/>
	</g>
</g>
</svg>
