<?xml version="1.0" encoding="utf-8"?>
<!-- Generator: Adobe Illustrator 25.4.1, SVG Export Plug-In . SVG Version: 6.00 Build 0)  -->
<svg version="1.1" id="Layer_1" xmlns="http://www.w3.org/2000/svg" xmlns:xlink="http://www.w3.org/1999/xlink" x="0px" y="0px"
	 viewBox="0 0 125.1 114" style="enable-background:new 0 0 125.1 114;" xml:space="preserve">
<style type="text/css">
	.st0{fill:#0054A0;}
	.st1{fill:#5AB149;}
</style>
<g>
	<path class="st0" d="M5.5,109.3h4.1c1.8,0,2.5-0.4,2.5-2.1c0-1.7-0.6-1.9-2.4-1.9H5.5V109.3z M5.5,101.5h4c1.9,0,2.4-0.3,2.4-2
		c0-1.2-0.2-1.7-1.7-1.8H5.5V101.5z M0,93.2h10.8c4.1,0,6.5,0.8,6.5,5.3c0,2.6-0.5,4.3-3.2,4.8v0.2c3,0.2,3.6,2,3.6,4.6
		c0,5.1-2.4,5.7-6.7,5.7H0V93.2z"/>
	<polygon class="st0" points="25.2,101.5 34,101.5 34,105.3 25.2,105.3 25.2,109.3 34.7,109.3 34.7,113.8 19.7,113.8 19.7,93.2 
		34.6,93.2 34.6,97.7 25.2,97.7 	"/>
	<path class="st0" d="M37.2,93.2h10.6c4.8,0.1,7.1,1.1,7.1,6.2c0,3.4,0,5.4-3.9,6.3v0.2c2.3,0.1,3.7,1.3,3.7,3.7v4.1h-5.5V111
		c0.1-1.5-0.6-2.6-2.3-2.6h-4.3v5.5h-5.5V93.2z M46.9,103.6c2.4,0,2.3-0.9,2.3-3.2c0-1.8-0.5-2.4-2.3-2.4h-4.3v5.6H46.9z"/>
	<path class="st0" d="M70.9,93.2v14.3c0,5.5-1.6,6.5-7.4,6.5c-5.7,0-6.9-1.3-6.9-7.1v-1.7h5.2v1.7c0,1.7,0.2,2.3,1.7,2.3
		c1.7,0,1.9-0.4,1.9-1.7V93.2H70.9z"/>
	<path class="st0" d="M82.1,97.4L82.1,97.4l-2.6,8.9h5.1L82.1,97.4z M78.4,110.3l-1,3.5h-5.7l6.2-20.6h8.4l6.3,20.6h-5.6l-1.1-3.5
		H78.4z"/>
	<polygon class="st0" points="101,106.6 101,113.8 95.5,113.8 95.5,106.6 88.2,93.2 94.5,93.2 98.2,101.2 98.4,101.2 102.2,93.2 
		108.5,93.2 	"/>
	<path class="st0" d="M114.8,97.4L114.8,97.4l-2.6,8.9h5.1L114.8,97.4z M111.1,110.3l-1,3.5h-5.7l6.2-20.6h8.3l6.3,20.6h-5.6
		l-1.1-3.5H111.1z"/>
	<g>
		<path class="st1" d="M76,21.4c0-3.6,0-6.4,0-7c0-5.3-8.5-5.3-8.5-0.1c0,0,0,3.1,0,7.2C70.3,21.4,73.2,21.3,76,21.4L76,21.4z
			 M57.5,21.4c0-3.6,0-6.4,0-7.1C57.5,9,49,9,49,14.2c0,0,0,2.9,0,7.2C51.8,21.4,54.7,21.4,57.5,21.4L57.5,21.4z M98.8,40.8
			c-1.2,1.6-3,2.7-5.5,2.7c0,0-3,0-7.1,0l0,0c0,0.5,0,0.9,0,1.4l0,0c0,0.6,0,1.1,0,1.7l0,0c3.1,0,5.7-0.1,6.9-0.1
			c9.6,0,9.6,15.6,0.3,15.6c0,0-15.5,0-25.7,0c0,0.8,0,1.9,0,2.6l0,0c12.1,0,25.8,0,25.8,0c11.1,0,15.1-15.2,6.3-19.4l-0.3-0.1
			c7.8-3.1,6.8-20.1-6.4-20.2c-3.7,0-15.5,0-25.5,0c0,1,0,2,0,3l0,0c8.6,0,22.3,0,25.5,0C100,28,101.9,36.3,98.8,40.8 M76.1,46.3
			c0-0.7,0-2,0-2.3l0,0c0-0.2,0,0.4,0,0l0,0c-5.2,0-10.3,0-13.7,0l0,0c-3.3,0-8.3,0-13.4,0l0,0c0,0.5,0-0.4,0,0l0,0
			c0,0.4,0,1.7,0,2.4l0,0c5.4,0,10.7,0,13.4,0l0,0C65.2,46.4,70.6,46.3,76.1,46.3L76.1,46.3z M86.2,58.5c3.9,0,6.8,0,6.8,0
			c5.1,0,5.1-8.4-0.1-8.4c-0.6,0-3.2,0-6.7,0l0,0C86.2,52.8,86.2,55.8,86.2,58.5L86.2,58.5z M76,58.4c0-2.9,0-6,0-8.3l0,0
			c-3,0-6,0-8.4,0l0,0c0,2.4,0,5.4,0,8.3l0,0C70,58.4,73,58.4,76,58.4L76,58.4z M86.2,31.5c0,2.7,0,5.7,0,8.5l0,0c3.9,0,6.8,0,6.8,0
			c5.1,0,5.1-8.5-0.1-8.5C92.2,31.5,89.6,31.6,86.2,31.5L86.2,31.5z M76,31.5c-3.1,0-6.1,0-8.5,0c0,3.1,0,6,0,8.4l0,0
			c2.5,0,5.4,0,8.5,0C76,37.6,76,34.5,76,31.5L76,31.5z M57.5,64.8c0-1.1,0-1.8,0-2.9l0,0c-10.2,0-25.9,0-25.9,0
			c-9.4,0-9.4-15.5,0.3-15.5c1.2,0,4-0.1,7.3-0.1l0,0c0-0.5,0-1.7,0-2.1l0,0c0-0.4,0,0.4,0,0c-4.3,0-7.6,0-7.6,0
			c-9.4,0-9.4-16.3,0.3-16.3c3.2,0,17.1-0.1,25.6-0.1c0-0.9,0-1.9,0-2.8c-0.6,0-1.3,0-1.8,0l0,0c-6.5,0-13.4,0-18.8,0
			c-2.7,0-4-0.7-5.3-0.7c-11.9,0-14.7,16.1-5.7,20.6l0,0c-8.9,4.7-5.8,19.8,5.8,19.9c0,0,11.9,0,24,0l0,0
			C56.3,64.8,56.8,64.8,57.5,64.8L57.5,64.8z M57.5,40.1c0-2.4,0-5.6,0-8.8c-2.4,0-5.4,0-8.5,0c0,3.3,0,6.3,0,8.8l0,0
			C52,40.1,55,40.2,57.5,40.1L57.5,40.1z M57.5,58.6c0-3.1,0.1-6,0.1-8.5l0,0c-2.4,0-5.4,0-8.4,0l0,0c0,2.4,0,5.5,0,8.5l0,0
			C52.1,58.6,55.1,58.6,57.5,58.6L57.5,58.6z M66.8,8.4c4.5-3.2,12.8-1.3,12.8,5.8c0,1.2,0,3.9,0,7.1l0,0c1,0,2,0,3,0l0,0
			c0-3.2,0-5.8,0-7.1C82.5,1,65.5,0.6,62.5,8.4l-0.4-0.5c-4.2-8.8-19.3-5.2-19.3,6c0,0,0,3.1,0,7.5c0.9,0,1.8,0,2.8,0
			c0-4.2,0-7.4,0-7.4c0-9.4,15.6-9.4,15.6,0.3c0,3.2,0,17.2,0.1,25.8c0.5,0,0.9,0,1.3,0l0,0c0.4,0,1,0,1.7,0l0,0
			c0-10.2-0.1-26.1-0.1-26.1C64,11.4,65.1,9.6,66.8,8.4 M82.5,68.5c-0.8,0-1.9,0-2.8,0l0,0c0,3.1,0,5.7,0,6.9
			c0,9.6-15.6,9.6-15.6,0.3c0,0,0-15.5,0-25.7l0,0c-0.8,0-1.3,0-1.6,0l0,0c-0.3,0-0.7,0-1.2,0c0,8.5,0,22.2,0,25.4
			c0,9.6-15.7,9.6-15.7,0.3c0,0,0-3.1,0-7.4l0,0c-0.8,0-1.9,0-2.6,0l0,0c0,4.5,0,7.4,0,7.4c0.1,11.5,15.1,16,19.8,7.1l0,0
			c4.4,9,19.8,4.4,19.8-7.5C82.5,73.4,82.5,71,82.5,68.5L82.5,68.5z M82.5,58.4c0-2.3,0-4.6,0-6.8l0,0c0-4.4,0-12.4,0-20l0,0
			c-0.9,0-1.9,0-2.8,0l0,0c0,5.3,0,10.5,0,13.2l0,0c0,2.7,0,8.2,0,13.6l0,0C80.6,58.4,81.6,58.4,82.5,58.4L82.5,58.4z M45.5,58.4
			c0-5.1,0-10.3,0-13.6l0,0c0-3.3,0-8.4,0-13.5h-2.7c0,7.1,0,15,0,20.2l0,0c0,2.3,0,4.7,0,6.9l0,0C43.7,58.5,44.6,58.4,45.5,58.4
			L45.5,58.4z M39.2,58.5c0-2.6,0-5.6,0-8.4l0,0c-3.6,0-6.5,0-7.2,0c-5.3,0-5.3,8.4-0.1,8.4C31.8,58.5,34.9,58.5,39.2,58.5
			L39.2,58.5z M39.3,31.4H32c-5.3,0-5.3,8.6-0.1,8.6c0,0,3.1,0,7.4,0C39.2,37.1,39.3,34.1,39.3,31.4z M57.5,68.2c-2.8,0-5.8,0-8.4,0
			l0,0c0,4.2,0,7.1,0,7.1c0,5.1,8.4,5.1,8.4-0.1C57.5,74.5,57.6,71.9,57.5,68.2L57.5,68.2z M76,68.5c-2.6,0-5.6,0-8.4,0l0,0
			c0,4,0,6.9,0,6.9c0,5.1,8.4,5.1,8.4-0.1C76,74.6,76,71.8,76,68.5L76,68.5z M84.3,66.6c0,2.8,0,5.4,0,7.4
			c0,11.9-14.7,15.2-21.8,9.1l0,0c-8.2,6.5-21.8,2.8-21.8-8.7c0,0,0-3.1,0-8l0,0c-4.9,0-8.2,0.1-8.2,0.1C21,66.5,17.3,53,23.8,44.8
			l0,0c-6-7.1-2.8-21.7,9.1-21.7c2.2,0,4.9-0.1,7.8-0.1c0-4.8,0-7.9,0-7.9c0-9.6,12.3-15.6,21.3-8.3l0,0c4.5-4,12.4-4.4,17.3-0.9
			c1.3,0.9,2.9,2.9,2.7,2.7c1.3,1.8,2.1,4.1,2.1,6.9c0,2.1,0,4.7,0,7.5l0,0c2.6,0,5.2,0,7.1,0c2.8,0,5.1,0.8,6.9,2.1
			c-0.2-0.2,1.8,1.4,2.7,2.7c3.5,4.9,3,12.8-0.9,17.3l0,0c7.4,9,1.4,21.4-8.3,21.4C91.9,66.6,88.9,66.6,84.3,66.6L84.3,66.6z"/>
		<path class="st0" d="M82.5,64.7h10.8c11.1,0,13.1-15.4,4.3-19.6l0,0C105.4,42,106.2,25,93,25c-1.9,0-10.4,0-10.4,0v-3.6
			c0-3.2,0-5.7,0-7.1C82.5,1,65.5,1.7,62.4,9.5l0,0c-4.2-8.8-19.7-6.8-19.7,4.3c0,0,0,6.7,0,11.2h0c-4.2,0-8,0-10.8,0
			c-11.9,0-14.2,15.4-5.2,19.9l0,0c-8.9,4.7-6.7,19.9,4.8,19.9c0,0-0.9,0,11.3,0l0,3.4c0,4.5,0,7.4,0,7.4
			c0.1,11.5,15.1,13.7,19.8,4.8l0,0c4.4,9,19.8,6.7,19.8-5.2c0-10.2,0-12.5,0-6.7L82.5,64.7L82.5,64.7z M86.3,68c0,3,0,5.8,0,8
			c0,12.9-15.8,16.4-23.5,9.9l0,0c-8.9,7-23.5,3.1-23.5-9.4c0,0,0-3.4,0-8.7l0,0c-5.3,0-8.9,0.1-8.9,0.1C18,67.9,14,53.4,21.1,44.5
			l0,0c-6.5-7.6-3-23.4,9.9-23.4c2.3,0,5.2-0.1,8.5-0.1c0-5.2,0-8.6,0-8.6c0-10.4,13.3-16.9,23-8.9l0,0c4.8-4.3,13.4-4.7,18.7-1
			c1.4,1,3.2,3.1,2.9,2.9c1.4,2,2.3,4.5,2.3,7.5c0,2.2,0,5,0,8.1l0,0c2.9,0,5.6,0,7.7,0c3,0,5.5,0.9,7.5,2.3c-0.2-0.2,2,1.5,2.9,2.9
			c3.8,5.2,3.3,13.8-1,18.7l0,0c8,9.8,1.5,23.1-8.9,23.1C94.5,68,91.2,68,86.3,68L86.3,68z"/>
		<path class="st0" d="M67.8,44.9c0,2.9-2.4,5.3-5.3,5.3c-2.9,0-5.2-2.4-5.2-5.3c0-2.9,2.4-5.3,5.2-5.3C65.5,39.6,67.8,42,67.8,44.9
			z"/>
	</g>
</g>
</svg>
